<svg xmlns="http://www.w3.org/2000/svg" xmlns:xlink="http://www.w3.org/1999/xlink" viewBox="0,0,256,256" width="48px" height="48px" fill-rule="nonzero"><g fill="none" fill-rule="nonzero" stroke="none" stroke-width="1" stroke-linecap="butt" stroke-linejoin="miter" stroke-miterlimit="10" stroke-dasharray="" stroke-dashoffset="0" font-family="none" font-weight="none" font-size="none" text-anchor="none" style="mix-blend-mode: normal"><g transform="scale(5.33333,5.33333)"><path d="M34,42h-20c-4.418,0 -8,-3.582 -8,-8v-20c0,-4.418 3.582,-8 8,-8h20c4.418,0 8,3.582 8,8v20c0,4.418 -3.582,8 -8,8z" fill="#9980fa"></path><path d="M36,27c0,-3.79 -2.63,-6.96 -6.16,-7.79c0.1,0.58 0.16,1.18 0.16,1.79c0,0.12 0,0.23 -0.01,0.34c2.33,0.82 4.01,3.05 4.01,5.66c0,1.48 -0.52,2.3 -1.07,3.16c-0.48,0.75 -1.07,1.67 -0.97,2.84h-3.96c-2.01,0 -3.78,-0.99 -4.87,-2.5c-0.66,0.22 -1.36,0.37 -2.08,0.45c1.37,2.42 3.97,4.05 6.95,4.05h6.447c0.456,0 0.68,-0.572 0.334,-0.87c-2.43,-2.097 1.219,-2.687 1.219,-7.13zM18.252,13.185c5.486,-1.161 10.282,3.303 9.7,8.703c-0.442,4.1 -4.086,7.112 -8.209,7.112h-6.192c-0.457,0 -0.678,-0.572 -0.332,-0.872c2.474,-2.139 -1.366,-2.709 -1.215,-7.397c0.117,-3.609 2.715,-6.798 6.248,-7.546zM19.731,17.954l-0.8,1.622l-1.79,0.26c-0.246,0.036 -0.344,0.338 -0.166,0.512l1.295,1.262l-0.306,1.783c-0.042,0.245 0.215,0.432 0.435,0.316l1.601,-0.842l1.601,0.842c0.22,0.116 0.477,-0.071 0.435,-0.316l-0.306,-1.783l1.295,-1.262c0.178,-0.174 0.08,-0.476 -0.166,-0.512l-1.79,-0.26l-0.8,-1.622c-0.11,-0.223 -0.428,-0.223 -0.538,0z" fill="#ffffff"></path><path d="M20,13c4.711,0 8.471,4.072 7.952,8.889c-0.442,4.099 -4.086,7.111 -8.209,7.111h-6.192c-0.457,0 -0.678,-0.572 -0.332,-0.872c2.474,-2.139 -1.366,-2.709 -1.215,-7.397c0.117,-3.609 2.715,-6.798 6.247,-7.546c0.593,-0.125 1.178,-0.185 1.749,-0.185M18.259,23.744c0.046,0 0.094,-0.011 0.14,-0.035l1.601,-0.842l1.601,0.842c0.046,0.024 0.094,0.035 0.14,0.035c0.175,0 0.329,-0.157 0.296,-0.351l-0.307,-1.783l1.295,-1.262c0.178,-0.174 0.08,-0.476 -0.166,-0.512l-1.79,-0.26l-0.8,-1.622c-0.055,-0.111 -0.162,-0.167 -0.269,-0.167c-0.107,0 -0.214,0.056 -0.269,0.167l-0.8,1.622l-1.79,0.26c-0.246,0.036 -0.344,0.338 -0.166,0.512l1.295,1.262l-0.306,1.783c-0.033,0.193 0.121,0.351 0.295,0.351M29.84,19.21c3.53,0.83 6.16,4 6.16,7.79c0,4.443 -3.649,5.033 -1.219,7.13c0.345,0.298 0.122,0.87 -0.334,0.87h-6.447c-2.98,0 -5.58,-1.63 -6.95,-4.05c0.72,-0.08 1.42,-0.23 2.08,-0.45c1.09,1.51 2.86,2.5 4.87,2.5h3.96c-0.1,-1.17 0.49,-2.09 0.97,-2.84c0.55,-0.86 1.07,-1.68 1.07,-3.16c0,-2.61 -1.68,-4.84 -4.01,-5.66c0.01,-0.11 0.01,-0.22 0.01,-0.34c0,-0.61 -0.06,-1.21 -0.16,-1.79M20.001,12.5v0c-0.615,0 -1.238,0.066 -1.853,0.196c-3.725,0.788 -6.519,4.161 -6.643,8.019c-0.077,2.383 0.812,3.773 1.461,4.789c0.69,1.08 0.899,1.406 -0.073,2.246c-0.316,0.273 -0.425,0.703 -0.279,1.097c0.148,0.397 0.516,0.653 0.937,0.653h6.192c4.499,0 8.242,-3.249 8.706,-7.558c0.264,-2.45 -0.49,-4.801 -2.123,-6.62c-1.611,-1.793 -3.916,-2.822 -6.325,-2.822zM17.614,20.272l1.389,-0.202c0.163,-0.024 0.304,-0.126 0.376,-0.274l0.621,-1.258l0.621,1.259c0.073,0.148 0.214,0.25 0.376,0.274l1.389,0.202l-1.005,0.98c-0.118,0.115 -0.172,0.28 -0.144,0.443l0.237,1.383l-1.242,-0.653c-0.072,-0.04 -0.152,-0.059 -0.232,-0.059c-0.08,0 -0.16,0.019 -0.233,0.057l-1.242,0.653l0.237,-1.383c0.028,-0.162 -0.026,-0.328 -0.144,-0.443l-1.004,-0.979zM29.84,18.71c-0.126,0 -0.249,0.048 -0.343,0.136c-0.122,0.115 -0.178,0.284 -0.15,0.449c0.102,0.588 0.153,1.161 0.153,1.705c0,0.104 0.001,0.199 -0.008,0.295c-0.021,0.228 0.116,0.441 0.332,0.517c2.199,0.773 3.676,2.858 3.676,5.188c0,1.341 -0.459,2.059 -0.991,2.891c-0.423,0.661 -0.978,1.528 -1.052,2.609h-3.457c-1.759,0 -3.428,-0.857 -4.465,-2.293c-0.095,-0.132 -0.248,-0.207 -0.405,-0.207c-0.053,0 -0.106,0.008 -0.158,0.026c-0.62,0.207 -1.286,0.351 -1.977,0.427c-0.167,0.019 -0.314,0.12 -0.39,0.269c-0.076,0.15 -0.073,0.328 0.01,0.474c1.503,2.655 4.333,4.304 7.385,4.304h6.447c0.422,0 0.791,-0.257 0.939,-0.655c0.146,-0.392 0.037,-0.821 -0.278,-1.093c-0.973,-0.84 -0.765,-1.166 -0.074,-2.247c0.619,-0.969 1.466,-2.294 1.466,-4.505c0,-3.967 -2.692,-7.371 -6.546,-8.277c-0.037,-0.009 -0.076,-0.013 -0.114,-0.013z" fill="#000000" opacity="0.07"></path><path d="M22.859,19.836l-1.79,-0.26l-0.8,-1.622c-0.055,-0.112 -0.162,-0.167 -0.269,-0.167c-0.107,0 -0.214,0.056 -0.269,0.167l-0.8,1.622l-1.79,0.26c-0.246,0.036 -0.344,0.338 -0.166,0.512l1.295,1.262l-0.306,1.783c-0.033,0.194 0.121,0.351 0.296,0.351c0.046,0 0.094,-0.011 0.14,-0.035l1.6,-0.842l1.601,0.842c0.046,0.024 0.094,0.035 0.14,0.035c0.175,0 0.329,-0.157 0.296,-0.351l-0.307,-1.783l1.295,-1.262c0.179,-0.174 0.08,-0.477 -0.166,-0.512zM21.032,20.894c-0.236,0.23 -0.343,0.561 -0.288,0.885l0.066,0.385l-0.346,-0.182c-0.144,-0.077 -0.304,-0.115 -0.464,-0.115c-0.16,0 -0.32,0.038 -0.465,0.115l-0.346,0.182l0.066,-0.385c0.056,-0.324 -0.052,-0.655 -0.288,-0.885l-0.279,-0.272l0.386,-0.056c0.326,-0.047 0.607,-0.252 0.753,-0.547l0.173,-0.351l0.173,0.35c0.146,0.295 0.427,0.5 0.753,0.547l0.386,0.056z" fill="#000000" opacity="0.05"></path><path d="M35.455,31.774c0.615,-0.963 1.545,-2.417 1.545,-4.774c0,-4.2 -2.85,-7.804 -6.931,-8.763c-0.076,-0.018 -0.153,-0.027 -0.229,-0.027c-0.252,0 -0.498,0.095 -0.686,0.272c-0.244,0.23 -0.357,0.567 -0.3,0.898c0.008,0.044 0.01,0.085 0.017,0.129c-0.282,-1.671 -1.027,-3.244 -2.173,-4.521c-1.705,-1.899 -4.146,-2.988 -6.697,-2.988v0c-0.649,0 -1.307,0.07 -1.956,0.207c-3.947,0.835 -6.908,4.407 -7.04,8.492c-0.082,2.537 0.893,4.064 1.539,5.074c0.666,1.042 0.666,1.042 0.021,1.599c-0.475,0.411 -0.64,1.058 -0.42,1.649c0.221,0.595 0.773,0.979 1.406,0.979h6.192c4.755,0 8.711,-3.441 9.203,-8.004c0.022,-0.202 0.037,-0.404 0.045,-0.606c0.02,0.401 0.28,0.758 0.667,0.894c1.999,0.703 3.342,2.598 3.342,4.716c0,1.194 -0.403,1.824 -0.912,2.621c-0.394,0.616 -0.895,1.398 -1.073,2.379h-3.015c-1.599,0 -3.117,-0.78 -4.059,-2.085c-0.192,-0.266 -0.496,-0.415 -0.811,-0.415c-0.105,0 -0.212,0.017 -0.316,0.051c-0.587,0.196 -1.218,0.332 -1.874,0.405c-0.334,0.037 -0.627,0.24 -0.78,0.539c-0.153,0.299 -0.145,0.655 0.02,0.948c1.591,2.811 4.588,4.557 7.82,4.557h6.447c0.633,0 1.186,-0.385 1.408,-0.981c0.22,-0.59 0.055,-1.236 -0.42,-1.646c-0.646,-0.557 -0.646,-0.557 0.02,-1.599zM27.952,21.889c-0.442,4.099 -4.086,7.111 -8.209,7.111h-6.192c-0.457,0 -0.678,-0.572 -0.331,-0.872c2.474,-2.139 -1.366,-2.709 -1.215,-7.397c0.117,-3.609 2.715,-6.798 6.247,-7.546c0.592,-0.125 1.177,-0.185 1.748,-0.185c4.711,0 8.471,4.072 7.952,8.889zM34.447,35h-6.447c-2.98,0 -5.58,-1.63 -6.95,-4.05c0.72,-0.08 1.42,-0.23 2.08,-0.45c1.09,1.51 2.86,2.5 4.87,2.5h3.96c-0.1,-1.17 0.49,-2.09 0.97,-2.84c0.55,-0.86 1.07,-1.68 1.07,-3.16c0,-2.61 -1.68,-4.84 -4.01,-5.66c0.01,-0.11 0.01,-0.22 0.01,-0.34c0,-0.61 -0.06,-1.21 -0.16,-1.79c3.53,0.83 6.16,4 6.16,7.79c0,4.443 -3.649,5.033 -1.219,7.13c0.346,0.298 0.123,0.87 -0.334,0.87z" fill="#000000" opacity="0.05"></path></g></g></svg>